<?xml version="1.0" standalone="no"?><!DOCTYPE svg PUBLIC "-//W3C//DTD SVG 1.1//EN" "http://www.w3.org/Graphics/SVG/1.1/DTD/svg11.dtd"><svg t="1623121969797" class="icon" viewBox="0 0 1024 1024" version="1.1" xmlns="http://www.w3.org/2000/svg" p-id="1410" width="128" height="128" xmlns:xlink="http://www.w3.org/1999/xlink"><defs><style type="text/css"></style></defs><path d="M897.7 1024H126.3C56.9 1024 0 967.2 0 897.7V126.3C0 56.9 56.7 0 126.3 0h771.5c69.4 0 126.3 56.8 126.3 126.3v771.5c-0.1 69.4-56.9 126.2-126.4 126.2z" fill="#231815" p-id="1411"></path><path d="M386.5 776c-1-0.8-1.3-4.4 0-5.9l94.4-114.6c7.1-8.7 5.9-21.5-2.8-28.6L419.9 579c-8.7-7.1-21.5-5.9-28.6 2.8 0 0-94.4 114.4-95.4 115.8-1.4 2-3.8 0.7-4.8-0.1-25.9-21.3-64.5-17.6-85.8 8.3-21.3 25.9-17.6 64.5 8.3 85.8 9.1 7.5 22.5 8.5 36.3 6.7 22.9-3 44.1 14.5 45.6 37.5 0.9 13.8 4.5 26.8 13.5 34.3 25.9 21.3 64.5 17.6 85.8-8.3 21.3-25.9 17.6-64.5-8.3-85.8z" fill="#231815" p-id="1412"></path><path d="M622 406m-79.9 0a79.9 79.9 0 1 0 159.8 0 79.9 79.9 0 1 0-159.8 0Z" fill="#231815" p-id="1413"></path><path d="M417.5 406m-79.9 0a79.9 79.9 0 1 0 159.8 0 79.9 79.9 0 1 0-159.8 0Z" fill="#231815" p-id="1414"></path><path d="M712.1 412.3c0-53.3-43.3-96.6-96.6-96.6-49.2 0-89.9 37.1-95.8 84.7-5.9-47.7-46.5-84.7-95.8-84.7-53.3 0-96.6 43.3-96.6 96.6s43.3 96.6 96.6 96.6c13.6 0 26.4-2.9 38.1-8l35.6 61.6c4.5 7.9 13 12.8 22.1 12.8 9.1 0 17.5-4.9 22.1-12.8l35.6-61.6c11.7 5.1 24.6 8 38.1 8 53.3 0 96.6-43.3 96.6-96.6z m-288.1 53c-29.2 0-53-23.8-53-53s23.8-53 53-53 53 23.8 53 53-23.8 53-53 53z m95.8 48.3l-22.4-38.8c11.9-14 20-31.4 22.4-50.7 2.4 19.2 10.4 36.6 22.4 50.7l-22.4 38.8z m95.7-48.3c-29.2 0-53-23.8-53-53s23.8-53 53-53 53 23.8 53 53-23.8 53-53 53z" fill="#FFE255" p-id="1415"></path><path d="M607.21541 431.584121a21 21 0 1 0 16.590018-38.584599 21 21 0 1 0-16.590018 38.584599Z" fill="#FFE255" p-id="1416"></path><path d="M415.683659 431.533907a21 21 0 1 0 16.590018-38.584599 21 21 0 1 0-16.590018 38.584599Z" fill="#FFE255" p-id="1417"></path><path d="M808.5 474.8V184.5c0-12.3-7.1-23.3-18.5-28.9-12.2-6-27-4.6-37.6 3.7 0 0-94.2 83.6-94.3 83.6-9 8-20.9 12.9-33.1 13.2-14.2 0.3-25.1-7.1-37.4-12.9-42.6-19.9-92.3-21.6-136.2-4.8-14.2 5.5-28 13.7-43 17-18.3 4-39.1-2.3-51.7-16.3l-66-72.8-1.2-1.2c-10.2-9.7-25.4-12.2-38.5-6.5-12.4 5.3-20.1 16.7-20.1 29.7V475h-24.1v143c0 132.2 107.6 239.8 239.8 239.8h146.2c132.2 0 239.8-107.6 239.8-239.8V475h-24.1zM450.2 813.9h-3.6c-108.2 0-196.2-88-196.2-196.2v-99.4h3.6c108.2 0 196.2 88 196.2 196.2v99.4z m95.6-99.4v99.4h-52v-99.4c0-125.3-96.6-228.3-219.2-238.8V213.2c9 10 18.1 19.9 27.1 29.9 19.1 21.1 36 40.8 63.6 50.6 7.6 2.7 15.4 4.6 23.4 5.8 8.7 1.3 17.7 1 26.3-0.8 9-1.8 16.7-5.9 25.1-9.2 9-3.5 18-7.2 27.1-10.6 32.9-12.6 70.1-11.3 102.1 3.6 12.2 5.7 24.5 12.3 37.8 15.6 43.9 10.8 80-22.6 110-49.3l48-42.6v269.4c-122.8 10.6-219.3 113.7-219.3 238.9z m243.3-96.7c0 108.2-88 196.2-196.2 196.2h-3.6v-99.4c0-108.2 88-196.2 196.2-196.2h3.6v99.4z" fill="#FFE255" p-id="1418"></path></svg>